# xmcd CD database file
#
# Track frame offsets:
#	150
#	48525
#	80231
#	119682
#	148930
#	221446
#	247489
#
# Disc length: 4098 seconds
#
# Revision: 0
# Processed by: cddbd v1.5.1PL0 Copyright (c) Steve Scherf et al.
# Submitted via: CDex 1.51
#
DISCID=77100007
DTITLE=Bjarne Villy Larsen - Essensce of sound
DYEAR=2002
DGENRE=New Age
TTITLE0=Sunrise at the ocean contemplating sound
TTITLE1=Into the light power of sound
TTITLE2=Purification presence of sound
TTITLE3=Dancing dynamics of sound
TTITLE4=Abudance celebration of sound
TTITLE5=Expression voice and singingbowls
TTITLE6=Openness three meditation sequences
EXTD=YEAR: 2002
EXTT0=
EXTT1=
EXTT2=
EXTT3=
EXTT4=
EXTT5=
EXTT6=
PLAYORDER=
